<svg width="20" height="20" viewBox="0 0 20 20" fill="none" xmlns="http://www.w3.org/2000/svg">
<path d="M17.0997 2.76037C16.6524 2.35884 14.8634 1.03618 10.8381 1.01256C10.8381 1.01256 6.10659 0.729134 3.79968 2.85484C2.50499 4.15389 2.05774 6.01979 2.01066 8.35807C1.96358 10.6963 1.89296 15.0659 6.10659 16.2704V18.0891C6.10659 18.0891 6.08305 18.8213 6.55384 18.963C7.14234 19.1519 7.4719 18.5851 8.03685 17.9946C8.34287 17.6639 8.76659 17.1916 9.07261 16.8137C11.9445 17.0499 14.1572 16.5066 14.4161 16.4121C15.0046 16.2232 18.2767 15.798 18.8181 11.4285C19.3831 6.89369 18.5827 4.03579 17.0997 2.76037ZM17.594 11.0743C17.1468 14.7352 14.4868 14.9714 13.9924 15.1131C13.7806 15.184 11.8503 15.6563 9.40216 15.5146C9.40216 15.5146 7.5896 17.7112 7.0011 18.3017C6.90694 18.3961 6.81278 18.4198 6.74216 18.4198C6.648 18.3961 6.62446 18.278 6.62446 18.1127C6.62446 17.8765 6.648 15.0895 6.648 15.0895C3.09349 14.0975 3.30535 10.3657 3.32889 8.40531C3.37597 6.44493 3.72906 4.86246 4.8119 3.77598C6.7657 2.00456 10.791 2.26437 10.791 2.26437C14.1807 2.28799 15.805 3.3036 16.1816 3.65789C17.4057 4.74436 18.0413 7.31883 17.594 11.0743Z" fill="white"/>
<path fill-rule="evenodd" clip-rule="evenodd" d="M10.2302 4C10.1031 4 10 4.09973 10 4.22275C10 4.34578 10.1031 4.44551 10.2302 4.44551C11.4638 4.44551 12.4804 4.84123 13.2952 5.60779C14.1035 6.36813 14.5396 7.41648 14.5396 8.77725C14.5396 8.90027 14.6427 9 14.7698 9C14.8969 9 15 8.90027 15 8.77725C15 7.31747 14.5282 6.14637 13.6162 5.28836C12.7107 4.43657 11.577 4 10.2302 4ZM10.2222 5.00062C10.1088 4.99209 10.0096 5.07277 10.0006 5.18083C9.9917 5.2889 10.0764 5.38341 10.1898 5.39194C10.9618 5.45002 11.5501 5.69886 11.978 6.14357C12.3881 6.57166 12.6068 7.13215 12.5868 7.79812C12.5835 7.90647 12.6731 7.99682 12.7868 7.99992C12.9005 8.00301 12.9953 7.91769 12.9986 7.80933C13.0214 7.04942 12.7697 6.38771 12.2821 5.87877L12.2818 5.87848C11.7691 5.3455 11.0748 5.06476 10.2222 5.00062ZM10.495 6.05957C10.3814 6.05372 10.2844 6.13672 10.2782 6.24496C10.2721 6.3532 10.3592 6.44569 10.4728 6.45154C10.8338 6.47013 11.077 6.57035 11.236 6.72778C11.3962 6.88636 11.4983 7.13008 11.5181 7.48811C11.5241 7.59636 11.621 7.67949 11.7346 7.6738C11.8482 7.6681 11.9355 7.57573 11.9295 7.46748C11.9065 7.05143 11.7842 6.70439 11.5328 6.45556C11.2803 6.20558 10.925 6.08172 10.495 6.05957Z" fill="white"/>
<path d="M11.3941 11.5503C11.3941 11.5503 11.7239 11.5738 11.8888 11.3618L12.2185 10.9378C12.3834 10.7258 12.7603 10.5845 13.1607 10.7965C13.3727 10.9143 13.7496 11.1498 13.9852 11.3383C14.2443 11.5267 14.7625 11.9507 14.7625 11.9507C15.0216 12.1627 15.0687 12.4689 14.9038 12.7987C14.7389 13.1049 14.5034 13.3876 14.1972 13.6467C13.9616 13.8587 13.7261 13.9529 13.4905 14H13.3963C13.3021 14 13.1843 13.9764 13.0901 13.9529C12.7368 13.8587 12.1479 13.5996 11.135 13.0578C10.499 12.7045 9.95725 12.3276 9.50971 11.9743C9.27415 11.7858 9.01505 11.5738 8.7795 11.3147L8.68528 11.2205C8.42617 10.9614 8.21418 10.7258 8.02574 10.4903C7.67241 10.0427 7.29553 9.50098 6.9422 8.86499C6.40044 7.87568 6.14133 7.2868 6.04711 6.90992C6.02355 6.8157 6 6.72148 6 6.60371V6.50949C6.02356 6.27394 6.14133 6.03839 6.35333 5.80284C6.61243 5.52017 6.89509 5.28462 7.20131 5.09618C7.53108 4.9313 7.8373 4.97841 8.04929 5.23751C8.04929 5.23751 8.47328 5.75573 8.66172 6.01483C8.82661 6.25038 9.06216 6.62726 9.20349 6.83926C9.41549 7.21614 9.27415 7.61658 9.08571 7.78146L8.66172 8.11123C8.44973 8.27612 8.47328 8.60589 8.47328 8.60589C8.47328 8.60589 9.06216 10.9378 11.3941 11.5503Z" fill="white"/>
</svg>
