<svg width="28" height="29" viewBox="0 0 28 29" fill="none" xmlns="http://www.w3.org/2000/svg">
<path d="M0 4.5C0 3.43913 0.421427 2.42172 1.17157 1.67157C1.92172 0.921427 2.93913 0.5 4 0.5H24C25.0609 0.5 26.0783 0.921427 26.8284 1.67157C27.5786 2.42172 28 3.43913 28 4.5V24.5C28 25.5609 27.5786 26.5783 26.8284 27.3284C26.0783 28.0786 25.0609 28.5 24 28.5H4C2.93913 28.5 1.92172 28.0786 1.17157 27.3284C0.421427 26.5783 0 25.5609 0 24.5V4.5Z" fill="#6CE1B7"/>
<path d="M11.242 21.5001C10.859 21.5001 10.476 21.3571 10.183 21.0701L4.43904 15.4281C4.30031 15.2927 4.19006 15.131 4.11478 14.9523C4.03951 14.7737 4.00073 14.5819 4.00073 14.3881C4.00073 14.1942 4.03951 14.0024 4.11478 13.8238C4.19006 13.6452 4.30031 13.4834 4.43904 13.3481C4.72234 13.0718 5.10236 12.9172 5.49804 12.9172C5.89371 12.9172 6.27373 13.0718 6.55704 13.3481L11.242 17.9491L21.443 7.93105C21.7263 7.65484 22.1064 7.50024 22.502 7.50024C22.8977 7.50024 23.2777 7.65484 23.561 7.93105C23.6999 8.06634 23.8102 8.22806 23.8856 8.40668C23.961 8.58529 23.9998 8.77719 23.9998 8.97105C23.9998 9.16492 23.961 9.35681 23.8856 9.53543C23.8102 9.71405 23.6999 9.87577 23.561 10.0111L12.301 21.0691C12.0186 21.3466 11.638 21.5015 11.242 21.5001Z" fill="white"/>
</svg>
