<svg width="34" height="34" viewBox="0 0 34 34" fill="none" xmlns="http://www.w3.org/2000/svg">
<path d="M8 7.71928L10.1243 9.83053C10.2571 9.0828 10.6554 8.37904 11.2308 7.85123C12.647 6.53169 14.9483 6.48771 16.3645 7.80724C16.4531 7.89521 16.5416 7.98318 16.6301 8.07115C17.2054 8.73092 17.5595 9.56662 17.5595 10.4463C17.5595 10.6223 17.5595 10.7982 17.5152 10.9301C17.4267 11.7658 17.0727 12.5136 16.4531 13.1294C15.922 13.6572 15.2581 14.0091 14.5058 14.141L16.6301 16.2523L19.197 13.7012C19.2412 13.6572 19.2412 13.6572 19.2855 13.6572C19.2855 13.6572 19.2855 13.6572 19.3298 13.6572C19.374 13.6572 19.374 13.6572 19.4183 13.6572C19.4625 13.6572 19.5068 13.6572 19.5068 13.6572C19.5953 13.7012 19.6838 13.7891 19.6838 13.9211C19.6838 14.7568 20.0379 15.5045 20.6132 16.0763C21.2328 16.6921 22.0294 17 22.8703 17C22.8703 17 22.8703 17 22.9146 17C23.1801 17 23.4014 16.956 23.6669 16.912C24.2423 16.7801 24.7734 16.4722 25.1717 16.0323C25.8798 15.2406 26.1453 14.185 25.924 13.1734C25.7913 12.6455 25.5257 12.1617 25.1717 11.7658C24.9504 11.5459 24.6848 11.326 24.4193 11.194C24.1538 11.0621 23.8882 10.9741 23.6227 10.8862C23.4899 10.8422 23.3571 10.8422 23.2244 10.7982C23.1359 10.7982 23.0031 10.7982 22.9146 10.7982C22.7818 10.7982 22.6933 10.7102 22.649 10.6223C22.6048 10.5343 22.649 10.4023 22.6933 10.3144L25.2602 7.76326L18.0906 0.59379C17.2939 -0.19793 15.9662 -0.19793 15.1696 0.59379L8 7.71928Z" fill="white"/>
<path d="M33.3866 15.1783L26.2887 8L24.1856 10.1269C24.9304 10.2598 25.6314 10.6586 26.1572 11.1903C27.4716 12.6083 27.5155 14.9124 26.201 16.3303C25.5 17.0836 24.5799 17.5267 23.5722 17.5267C22.5644 17.571 21.6005 17.1722 20.8995 16.4189C20.3737 15.8872 20.0232 15.2226 19.8918 14.4693L17.7448 16.6405L20.2861 19.2105C20.3737 19.2991 20.3737 19.432 20.3299 19.5207C20.2861 19.6093 20.1985 19.6979 20.067 19.6979C19.2345 19.6979 18.4897 20.0524 17.9201 20.6284C17.3067 21.2488 17 22.0464 17 22.9326C17 23.7745 17.3505 24.572 18.0077 25.1924C18.183 25.3696 18.4021 25.5469 18.6649 25.6355C19.8041 26.2558 21.2938 26.0786 22.3015 25.1481C22.9149 24.572 23.2655 23.7745 23.2655 22.9326C23.2655 22.7996 23.3531 22.711 23.4407 22.6667C23.5284 22.6224 23.6598 22.6667 23.7474 22.711L26.2887 25.281L33.3866 18.1027C33.7809 17.7039 34 17.1722 34 16.6405C34 16.0645 33.7809 15.5771 33.3866 15.1783Z" fill="white"/>
<path d="M23.9142 24.1695C23.781 24.9172 23.3816 25.621 22.8047 26.1488C21.3845 27.4683 19.0768 27.5123 17.6567 26.1928C16.9022 25.489 16.4584 24.5653 16.4584 23.5537C16.4584 22.806 16.6803 22.0582 17.0797 21.4424C17.2129 21.2225 17.3904 21.0466 17.5679 20.8706C18.1005 20.3428 18.7662 19.9909 19.5206 19.859L17.3904 17.7038L14.8164 20.2549C14.7276 20.3868 14.5945 20.3868 14.5057 20.3428C14.417 20.2988 14.3282 20.2109 14.3282 20.0789C14.3282 19.2432 13.9732 18.4955 13.3962 17.9237C12.7749 17.3079 11.9761 17 11.0885 17C10.9998 17 10.8666 17 10.7779 17C10.0234 17.088 9.35771 17.4398 8.82516 17.9677C7.98195 18.8473 7.80443 20.1669 8.20385 21.2665C8.20385 21.3105 8.24823 21.3545 8.24823 21.3984C8.24823 21.4424 8.29261 21.4864 8.29261 21.5304C8.42574 21.7943 8.60326 22.0582 8.82516 22.2781C9.40209 22.8939 10.2009 23.2458 11.0441 23.2458C11.1773 23.2458 11.266 23.3338 11.3104 23.4217C11.3548 23.5097 11.3104 23.6417 11.266 23.7296L8.69202 26.2807L15.8815 33.4062C16.6803 34.1979 18.0117 34.1979 18.8105 33.4062L26 26.2807L23.9142 24.1695Z" fill="white"/>
<path d="M0.614987 18.8111L7.73127 26L9.83979 23.87C9.09302 23.7368 8.39018 23.3375 7.86305 22.7606C6.54522 21.3405 6.50129 19.033 7.81912 17.613C8.52196 16.8586 9.44444 16.4148 10.4548 16.4148C11.4651 16.4148 12.4315 16.7698 13.1344 17.5242C13.6615 18.0567 14.0129 18.7224 14.1447 19.4768L16.2532 17.3467L13.7054 14.7729C13.6176 14.6842 13.6176 14.5511 13.6615 14.4623C13.7054 14.3736 13.7933 14.2848 13.9251 14.2848C14.7597 14.2848 15.5065 13.9298 16.0775 13.3529C16.1654 13.2642 16.2093 13.1754 16.2972 13.131C16.7804 12.5541 17 11.8441 17 11.0897C17 10.2466 16.6486 9.44784 15.9897 8.82658C14.8036 7.71719 12.8708 7.71719 11.7287 8.87096C11.1137 9.44784 10.7623 10.2466 10.7623 11.0897C10.7623 11.2229 10.6744 11.3116 10.5866 11.356C10.4987 11.4004 10.3669 11.356 10.2791 11.3116L7.73127 8.73783L0.614987 15.8823C0.219638 16.2817 0 16.7698 0 17.3467C0 17.9236 0.219638 18.4117 0.614987 18.8111Z" fill="white"/>
</svg>
