<svg width="27" height="34" viewBox="0 0 27 34" fill="none" xmlns="http://www.w3.org/2000/svg">
<path fill-rule="evenodd" clip-rule="evenodd" d="M4.01351 0C1.79692 0 0 1.78134 0 3.97872V30.0213C0 32.2187 1.79692 34 4.01351 34H22.9865C25.2031 34 27 32.2187 27 30.0213V3.97872C27 1.78134 25.2031 0 22.9865 0H4.01351ZM6.93243 4.34043C5.52186 4.34043 4.37838 5.474 4.37838 6.87234C4.37838 8.27068 5.52186 9.40425 6.93243 9.40425C8.343 9.40425 9.48649 8.27068 9.48649 6.87234C9.48649 5.474 8.343 4.34043 6.93243 4.34043ZM4.37838 17C4.37838 15.6017 5.52186 14.4681 6.93243 14.4681C8.343 14.4681 9.48649 15.6017 9.48649 17C9.48649 18.3983 8.343 19.5319 6.93243 19.5319C5.52186 19.5319 4.37838 18.3983 4.37838 17ZM6.93243 24.5957C5.52186 24.5957 4.37838 25.7293 4.37838 27.1277C4.37838 28.526 5.52186 29.6596 6.93243 29.6596C8.343 29.6596 9.48649 28.526 9.48649 27.1277C9.48649 25.7293 8.343 24.5957 6.93243 24.5957ZM14.2297 5.78723C13.6252 5.78723 13.1351 6.27306 13.1351 6.87234C13.1351 7.47162 13.6252 7.95745 14.2297 7.95745H22.9865C23.591 7.95745 24.0811 7.47162 24.0811 6.87234C24.0811 6.27306 23.591 5.78723 22.9865 5.78723H14.2297ZM13.1351 17C13.1351 16.4007 13.6252 15.9149 14.2297 15.9149H22.9865C23.591 15.9149 24.0811 16.4007 24.0811 17C24.0811 17.5993 23.591 18.0851 22.9865 18.0851H14.2297C13.6252 18.0851 13.1351 17.5993 13.1351 17ZM14.2297 26.0426C13.6252 26.0426 13.1351 26.5284 13.1351 27.1277C13.1351 27.7269 13.6252 28.2128 14.2297 28.2128H22.9865C23.591 28.2128 24.0811 27.7269 24.0811 27.1277C24.0811 26.5284 23.591 26.0426 22.9865 26.0426H14.2297Z" fill="white"/>
</svg>
