<svg width="26" height="39" viewBox="0 0 26 39" fill="none" xmlns="http://www.w3.org/2000/svg">
<path d="M15.5999 36.4H10.4C10.0552 36.4 9.72452 36.537 9.48072 36.7808C9.23693 37.0246 9.09997 37.3552 9.09997 37.7C9.09997 38.0448 9.23693 38.3754 9.48072 38.6192C9.72452 38.863 10.0552 39 10.4 39H15.5999C15.9447 39 16.2754 38.863 16.5191 38.6192C16.7629 38.3754 16.8999 38.0448 16.8999 37.7C16.8999 37.3552 16.7629 37.0246 16.5191 36.7808C16.2754 36.537 15.9447 36.4 15.5999 36.4ZM16.8999 32.5H9.09997C8.75519 32.5 8.42453 32.637 8.18073 32.8808C7.93694 33.1246 7.79998 33.4552 7.79998 33.8C7.79998 34.1448 7.93694 34.4754 8.18073 34.7192C8.42453 34.963 8.75519 35.1 9.09997 35.1H16.8999C17.2447 35.1 17.5753 34.963 17.8191 34.7192C18.0629 34.4754 18.1999 34.1448 18.1999 33.8C18.1999 33.4552 18.0629 33.1246 17.8191 32.8808C17.5753 32.637 17.2447 32.5 16.8999 32.5ZM22.2152 3.7936C19.7721 1.34716 16.4993 3.68424e-05 12.9999 3.68424e-05C11.2916 -0.00403495 9.59933 0.32944 8.02028 0.981309C6.44122 1.63318 5.0065 2.59059 3.79854 3.79857C2.59058 5.00654 1.63317 6.44126 0.981302 8.02033C0.329438 9.5994 -0.00403493 11.2917 3.68422e-05 13C3.68422e-05 16.7879 1.45196 20.3312 3.98126 22.7208L4.3355 23.0531C5.7988 24.4213 7.79998 26.2958 7.79998 27.95V29.9C7.79998 30.2448 7.93694 30.5755 8.18073 30.8192C8.42453 31.063 8.75519 31.2 9.09997 31.2H11.05C11.2223 31.2 11.3877 31.1315 11.5096 31.0096C11.6315 30.8877 11.6999 30.7224 11.6999 30.55V21.0291C11.7 20.8977 11.6602 20.7693 11.5858 20.661C11.5113 20.5526 11.4058 20.4694 11.2831 20.4222C10.5325 20.116 9.81933 19.7248 9.15765 19.2563C9.00896 19.1613 8.88115 19.0371 8.78201 18.8912C8.68286 18.7452 8.61446 18.5806 8.58097 18.4074C8.54747 18.2342 8.54959 18.056 8.58718 17.8836C8.62477 17.7112 8.69706 17.5483 8.79963 17.4048C8.90221 17.2612 9.03293 17.1401 9.18383 17.0487C9.33474 16.9573 9.50266 16.8975 9.67739 16.8731C9.85212 16.8487 10.03 16.8601 10.2002 16.9066C10.3703 16.9532 10.5293 17.0338 10.6673 17.1438C11.2685 17.5695 12.4263 18.2 12.9999 18.2C13.5736 18.2 14.7314 17.5679 15.3342 17.1438C15.6149 16.9673 15.9525 16.9047 16.2778 16.9689C16.6031 17.0331 16.8916 17.2192 17.0842 17.489C17.2768 17.7589 17.3591 18.0922 17.3141 18.4207C17.2691 18.7492 17.1003 19.0481 16.8422 19.2563C16.1804 19.7239 15.4673 20.1143 14.7167 20.4198C14.594 20.4669 14.4885 20.5502 14.4141 20.6585C14.3397 20.7669 14.2999 20.8953 14.2999 21.0267V30.55C14.2999 30.7224 14.3684 30.8877 14.4903 31.0096C14.6122 31.1315 14.7775 31.2 14.9499 31.2H16.8999C17.2447 31.2 17.5753 31.063 17.8191 30.8192C18.0629 30.5755 18.1999 30.2448 18.1999 29.9V27.95C18.1999 26.3348 20.1791 24.462 21.6246 23.0937L22.0235 22.7151C24.6251 20.2313 25.9998 16.8683 25.9998 13C26.0084 11.2915 25.6784 9.59828 25.0288 8.01808C24.3792 6.43788 23.423 5.00207 22.2152 3.7936Z" fill="white"/>
</svg>
