<svg width="28" height="33" viewBox="0 0 28 33" fill="none" xmlns="http://www.w3.org/2000/svg">
<path d="M27.0004 0.000202006H4.11015C3.55811 0.000202006 3.1101 0.456608 3.1101 1.01897V3.71407C1.37068 3.88993 0 5.37493 0 7.19992C0 9.02492 1.3691 10.5099 3.10978 10.6842V11.6166C1.3691 11.7909 0 13.2746 0 15.098C0 16.9246 1.3691 18.4108 3.10978 18.5851V19.5146C1.3691 19.6889 0 21.1755 0 22.9989C0 24.8226 1.3691 26.3088 3.10978 26.4831V29.1896C3.13207 31.0247 4.05285 33 6.02823 33H26.1117C26.6626 33 27.1106 32.5436 27.1106 31.9784C27.1106 31.4173 26.6638 30.9568 26.1117 30.9568L6.02823 30.9571C5.64554 30.9571 5.42075 30.5943 5.28886 30.1961H26.9996C27.5517 30.1961 27.9997 29.7397 27.9997 29.1773L28 1.01909C28 0.457677 27.5532 0 26.9999 0L27.0004 0.000202006ZM3.11065 24.433C2.47408 24.2815 1.99694 23.696 1.99694 22.9989C1.99694 22.3018 2.47406 21.718 3.11065 21.562V24.433ZM3.11065 16.5334C2.47408 16.379 1.99694 15.7952 1.99694 15.0965C1.99694 14.3978 2.47406 13.8184 3.11065 13.6624V16.5334ZM3.11065 8.63529C2.47376 8.48062 1.99821 7.89675 1.99821 7.19968C1.99821 6.50262 2.47378 5.92027 3.11065 5.76594V8.63529ZM22.3429 11.7991H8.77158V5.32336H22.3429V11.7991Z" fill="white"/>
</svg>
