<svg width="34" height="20" viewBox="0 0 34 20" fill="none" xmlns="http://www.w3.org/2000/svg">
<path fill-rule="evenodd" clip-rule="evenodd" d="M17 10C19.7614 10 22 7.98527 22 5.5C22 3.01473 19.7614 1 17 1C14.2386 1 12 3.01473 12 5.5C12 7.98527 14.2386 10 17 10Z" fill="white"/>
<path fill-rule="evenodd" clip-rule="evenodd" d="M20.5394 10.1273C19.4932 11.1221 18.069 11.7341 16.5 11.7341C14.931 11.7341 13.5068 11.1221 12.4606 10.1273C12.2805 10.0827 12.1003 10.0387 11.9253 10.0165C11.7504 9.99418 11.5811 9.99418 11.4233 10.0185C11.266 10.0423 11.1206 10.091 10.9508 10.1516C10.781 10.2117 10.5874 10.2842 10.3449 10.4292C10.103 10.5742 9.81169 10.7917 9.5334 11.1547C9.25459 11.5166 8.98825 12.0247 8.74578 12.629C8.50331 13.2328 8.28525 13.934 8.16428 14.6108C8.04331 15.2871 8.0189 15.9401 8.00696 16.4351C7.9945 16.9307 7.9945 17.2694 8.04331 17.5956C8.09159 17.9219 8.18816 18.2357 8.40674 18.55C8.62481 18.8644 8.96384 19.1787 9.36363 19.42C9.76341 19.6618 10.2239 19.8312 10.8542 19.9156C11.484 20 12.2836 20 13.2529 20H16.0639H16.5H16.9361H19.7471C20.7164 20 21.516 20 22.1458 19.9156C22.7761 19.8312 23.2366 19.6618 23.6364 19.42C24.0362 19.1787 24.3752 18.8644 24.5933 18.55C24.8118 18.2357 24.9084 17.9219 24.9567 17.5956C25.0055 17.2694 25.0055 16.9307 24.993 16.4351C24.9811 15.9401 24.9567 15.2871 24.8357 14.6108C24.7147 13.934 24.4967 13.2328 24.2542 12.629C24.0118 12.0247 23.7454 11.5166 23.4666 11.1547C23.1883 10.7917 22.897 10.5742 22.6551 10.4292C22.4126 10.2842 22.219 10.2117 22.0492 10.1516C21.8794 10.091 21.734 10.0423 21.5767 10.0185C21.4189 9.99418 21.2496 9.99418 21.0747 10.0165C20.8997 10.0387 20.7195 10.0827 20.5394 10.1273Z" fill="white"/>
<path fill-rule="evenodd" clip-rule="evenodd" d="M21.828 7.8239C22.6957 8.55407 23.8511 9 25.1187 9C27.8146 9 30 6.98527 30 4.5C30 2.01473 27.8146 0 25.1187 0C23.3875 0 21.8661 0.831101 21 2.08403C21.9772 2.9066 22.5906 4.09173 22.5906 5.40793C22.5906 6.29679 22.3106 7.12638 21.828 7.8239Z" fill="white"/>
<path fill-rule="evenodd" clip-rule="evenodd" d="M12.172 7.8239C11.3043 8.55407 10.1489 9 8.88131 9C6.18545 9 4 6.98527 4 4.5C4 2.01473 6.18545 0 8.88131 0C10.6125 0 12.1339 0.831101 13 2.08403C12.0228 2.9066 11.4094 4.09173 11.4094 5.40793C11.4094 6.29679 11.6894 7.12638 12.172 7.8239Z" fill="white"/>
<path fill-rule="evenodd" clip-rule="evenodd" d="M29.1975 9.12727C28.1046 10.092 26.6295 10.6974 25 10.7326L25.18 10.9325C25.4802 11.2945 25.7669 11.8025 26.028 12.4068C26.289 13.0106 26.5238 13.7118 26.6541 14.3886C26.7843 15.0649 26.8106 15.7179 26.8234 16.213C26.8368 16.7085 26.8368 17.0472 26.7843 17.3734C26.7323 17.6997 26.6283 18.0135 26.393 18.3278C26.218 18.5619 25.971 18.7965 25.6786 19H28.3444C29.3881 19 30.2489 19 30.927 18.9156C31.6056 18.8312 32.1014 18.6618 32.5319 18.42C32.9623 18.1787 33.3273 17.8644 33.5621 17.55C33.7974 17.2357 33.9014 16.9219 33.9534 16.5956C34.0059 16.2694 34.0059 15.9307 33.9925 15.4351C33.9796 14.9401 33.9534 14.2871 33.8231 13.6108C33.6929 12.934 33.4581 12.2328 33.1971 11.629C32.936 11.0247 32.6492 10.5166 32.3491 10.1547C32.0494 9.79167 31.7359 9.57417 31.4754 9.42917C31.2143 9.28418 31.0058 9.21168 30.823 9.15161C30.6402 9.09102 30.4837 9.04234 30.3143 9.01852C30.1444 8.99418 29.9622 8.99418 29.7738 9.01645C29.5854 9.03872 29.3914 9.08273 29.1975 9.12727Z" fill="white"/>
<path fill-rule="evenodd" clip-rule="evenodd" d="M4.80253 9.12727C5.89536 10.092 7.37054 10.6974 9 10.7326L8.82 10.9325C8.51983 11.2945 8.23306 11.8025 7.97201 12.4068C7.71096 13.0106 7.47619 13.7118 7.34594 14.3886C7.2157 15.0649 7.18942 15.7179 7.17657 16.213C7.16315 16.7085 7.16315 17.0472 7.2157 17.3734C7.26768 17.6997 7.37166 18.0135 7.60699 18.3278C7.78196 18.5619 8.02903 18.7965 8.32138 19H5.65555C4.61191 19 3.75106 19 3.07301 18.9156C2.39439 18.8312 1.89857 18.6618 1.46814 18.42C1.03772 18.1787 0.672696 17.8644 0.437919 17.55C0.202583 17.2357 0.0986109 16.9219 0.0466242 16.5956C-0.00592041 16.2694 -0.00592041 15.9307 0.00749493 15.4351C0.0203524 14.9401 0.0466242 14.2871 0.176869 13.6108C0.307115 12.934 0.541891 12.2328 0.80294 11.629C1.06399 11.0247 1.35075 10.5166 1.65093 10.1547C1.95055 9.79167 2.26415 9.57417 2.52464 9.42917C2.78569 9.28418 2.99419 9.21168 3.17698 9.15161C3.35977 9.09102 3.51629 9.04234 3.68566 9.01852C3.8556 8.99418 4.03783 8.99418 4.22621 9.01645C4.41459 9.03872 4.60856 9.08273 4.80253 9.12727Z" fill="white"/>
</svg>
