<svg width="31" height="37" viewBox="0 0 31 37" fill="none" xmlns="http://www.w3.org/2000/svg">
<path d="M10.2128 26.5367C10.0219 26.3853 9.7928 26.2715 9.56374 26.2715L7.95979 26.158C6.31799 26.0444 4.86692 25.2116 3.91231 24L0.0938597 32.0635C-0.249739 32.8206 0.399369 33.6913 1.23946 33.54L4.67593 32.8964C5.09597 32.8206 5.5541 33.01 5.78314 33.4264L7.46332 36.455C7.88337 37.2121 8.95252 37.1744 9.29611 36.3792L13 28.5429C12.4273 28.3158 11.9308 28.0129 11.4344 27.5964L10.2128 26.5367Z" fill="white"/>
<path d="M30.892 32.1046L27.0779 24C26.1243 25.2177 24.6748 26.0166 23.0349 26.169L21.4329 26.2831C21.1658 26.3211 20.9753 26.3972 20.7846 26.5496L19.5639 27.577C19.1063 27.9576 18.5723 28.3 18 28.5283L21.6998 36.4046C22.043 37.1655 23.1492 37.2038 23.5305 36.4808L25.2088 33.4367C25.4376 33.0561 25.8572 32.8279 26.3148 32.904L29.7474 33.5508C30.5868 33.7027 31.2732 32.8655 30.892 32.1046L30.892 32.1046Z" fill="white"/>
<path d="M18.4538 24.1975C18.991 23.7351 19.682 23.4267 20.4109 23.388L22.0227 23.2723C23.7113 23.1567 25.0543 21.8075 25.1697 20.1115L25.2848 18.4926C25.3231 17.7601 25.6302 17.0664 26.0909 16.5268L27.1654 15.2932C28.2782 13.9827 28.2782 12.0939 27.1654 10.8219L26.0909 9.58828C25.6304 9.04865 25.3234 8.35468 25.2848 7.62252L25.1697 6.00361C25.0546 4.30754 23.7113 2.95866 22.0227 2.84274L20.4109 2.72713C19.6817 2.68868 18.991 2.38028 18.4538 1.91754L17.2256 0.838261C15.9209 -0.27942 14.0403 -0.27942 12.7739 0.838261L11.5462 1.80245C11.009 2.26491 10.318 2.57329 9.58909 2.61204L7.97728 2.72766C6.28865 2.84327 4.94568 4.19246 4.83028 5.88853L4.71517 7.50744C4.67689 8.23987 4.36984 8.93355 3.90912 9.47319L2.83458 10.7068C1.72181 12.0173 1.72181 13.9061 2.83458 15.1781L3.90912 16.4117C4.36956 16.9513 4.67659 17.6453 4.71517 18.3775L4.83028 19.9964C4.94539 21.6925 6.28865 23.0413 7.97728 23.1573L9.58909 23.2729C10.3183 23.3113 11.009 23.6197 11.5462 24.0825L12.7744 25.1617C14.0791 26.2794 15.9596 26.2794 17.2261 25.1617L18.4538 24.1975ZM7.78513 13.0194C7.78513 9.01076 11.0087 5.7728 14.9999 5.7728C18.9909 5.7728 22.2147 9.01055 22.2147 13.0194C22.2147 17.0282 18.9908 20.2659 14.9999 20.2659C11.009 20.2659 7.78513 16.9894 7.78513 13.0194Z" fill="white"/>
<path d="M19.4555 10.9249L17.5058 10.5348C17.3182 10.4959 17.1307 10.3789 17.0559 10.1839L16.0811 8.35093C15.8186 7.88302 15.1438 7.88302 14.9189 8.35093L13.9441 10.1839C13.8317 10.3789 13.6815 10.4959 13.4943 10.5348L11.5445 10.9249C11.0196 11.0419 10.8321 11.7048 11.1695 12.0949L12.5193 13.6159C12.6691 13.7718 12.7068 13.9668 12.7068 14.1619L12.4819 16.2288C12.4068 16.7748 12.9694 17.1648 13.4192 16.9306L15.2189 16.0337C15.4064 15.9557 15.5939 15.9557 15.7812 16.0337L17.5808 16.9306C18.0683 17.1646 18.5932 16.7748 18.5181 16.2288L18.2932 14.1619C18.2558 13.9668 18.3306 13.7329 18.4807 13.6159L19.8305 12.0949C20.1679 11.6659 19.9804 11.0419 19.4555 10.9249H19.4555Z" fill="white"/>
</svg>
