<svg width="50" height="53" viewBox="0 0 50 53" fill="none" xmlns="http://www.w3.org/2000/svg">
<path d="M46.6667 12H3.33333C1.49994 12 0 13.4969 0 15.3508V38.6492C0 40.5031 1.49994 42 3.33333 42H46.6667C48.5001 42 50 40.5031 50 38.6492V15.3508C50 13.4969 48.5001 12 46.6667 12ZM47.7778 30.8984C43.1444 31.412 39.4668 35.1202 38.9553 39.767L11.0442 39.7665C10.5333 35.1204 6.85524 31.4121 2.22171 30.8979V23.1019C6.85511 22.5883 10.5327 18.88 11.0442 14.2332H38.9553C39.4662 18.8794 43.1443 22.5877 47.7778 23.1019V30.8984Z" fill="white"/>
<path d="M25 16C19.4891 16 15 20.4802 15 26.0055C15 31.5193 19.4891 36 25 36C30.5109 36 35 31.5198 35 26.0055C35 20.4802 30.5109 16 25 16ZM25 24.8937C26.7222 24.8937 28.1111 26.2835 28.1111 28.0066C28.1111 29.285 27.3442 30.3745 26.2446 30.8523V31.6528C26.2446 32.2643 25.7446 32.7646 25.1335 32.7646C24.5223 32.7646 24.0223 32.2643 24.0223 31.6528V30.9526C22.7892 30.5411 21.8889 29.3852 21.8889 28.0064C21.8889 27.395 22.378 26.8947 23 26.8947C23.6111 26.8947 24.1111 27.395 24.1111 28.0064C24.1111 28.4958 24.5109 28.8958 25 28.8958C25.4891 28.8958 25.8889 28.4958 25.8889 28.0064C25.8889 27.5171 25.4891 27.1171 25 27.1171C23.2778 27.1171 21.8889 25.7166 21.8889 23.9933C21.8889 22.626 22.7887 21.4587 24.0223 21.0472V20.3469C24.0223 19.7355 24.5223 19.2352 25.1335 19.2352C25.7446 19.2352 26.2446 19.7355 26.2446 20.3469V21.1475C27.3448 21.6254 28.1111 22.7262 28.1111 23.9932C28.1111 24.6156 27.622 25.1049 27 25.1049C26.3889 25.1049 25.8889 24.6156 25.8889 23.9932C25.8889 23.5039 25.4891 23.1038 25 23.1038C24.5109 23.1038 24.1111 23.5039 24.1111 23.9932C24.1111 24.4935 24.5109 24.8935 25 24.8935V24.8937Z" fill="white"/>
<path d="M1.08289 6.16962H12.3017L10.6023 8.0044C10.1788 8.46167 10.1788 9.20082 10.6023 9.65757C10.8136 9.88568 11.0907 10 11.3682 10C11.6452 10 11.9227 9.88516 12.134 9.65757L15.6828 5.82712C15.8864 5.60736 16 5.31137 16 5.00026C16 4.68915 15.8864 4.39213 15.6828 4.17341L12.134 0.342959C11.7105 -0.11432 11.0259 -0.11432 10.6028 0.342959C10.1793 0.800237 10.1793 1.53939 10.6028 1.99613L12.3019 3.83091H1.08301C0.485423 3.83091 0 4.35344 0 5.0002C0 5.64695 0.483975 6.16948 1.08301 6.16948L1.08289 6.16962Z" fill="white"/>
<path d="M48.9174 46.8309H37.6969L39.3973 44.9961C39.8209 44.5389 39.8209 43.7997 39.3973 43.343C38.9738 42.8857 38.2891 42.8857 37.8661 43.343L34.3172 47.1734C34.1136 47.3932 34 47.6892 34 48.0003C34 48.3114 34.1136 48.6084 34.3172 48.8271L37.8661 52.6576C38.0774 52.8857 38.3544 53 38.632 53C38.909 53 39.1865 52.8852 39.3978 52.6576C39.8214 52.2003 39.8214 51.4611 39.3978 51.0044L37.6969 49.1696H48.917C49.516 49.1696 50 48.6471 50 48.0003C50.0005 47.3536 49.516 46.831 48.9174 46.831L48.9174 46.8309Z" fill="white"/>
</svg>
