<svg width="50" height="40" viewBox="0 0 50 40" fill="none" xmlns="http://www.w3.org/2000/svg">
<path d="M49.9998 3.80596C50.0015 2.47733 49.2889 1.24594 48.1248 0.564935C46.9602 -0.115559 45.5158 -0.145426 44.3233 0.486708C43.1307 1.11884 42.3659 2.31997 42.3105 3.6473C42.2556 4.97463 42.9175 6.23263 44.0537 6.95809L39.2113 11.7195C38.0604 12.839 36.4829 13.4338 34.8629 13.3585C33.2428 13.2832 31.7296 12.5451 30.6922 11.3238L27.0189 7.00913C27.9753 6.43083 28.6261 5.47195 28.7995 4.38386C28.9734 3.2962 28.6527 2.1884 27.9221 1.3515C27.1911 0.51497 26.1235 0.0334253 24.9996 0.0334253C23.8758 0.0334253 22.8083 0.514992 22.0772 1.3515C21.3466 2.18844 21.0259 3.2962 21.1998 4.38386C21.3732 5.47184 22.024 6.43084 22.9803 7.00913L19.3071 11.3428C18.2636 12.5565 16.75 13.2875 15.1317 13.3591C13.5138 13.4306 11.9388 12.8363 10.788 11.7196L5.94557 6.9582C6.89896 6.35678 7.53427 5.37516 7.6824 4.27361C7.8305 3.17216 7.47678 2.06264 6.71441 1.23995C5.95247 0.417305 4.85956 -0.0356977 3.72636 0.00220147C2.59317 0.0401006 1.53414 0.564519 0.83139 1.43634C0.128263 2.30778 -0.14819 3.43832 0.0763179 4.5276C0.300826 5.61644 1.00267 6.55391 1.99557 7.0902C1.93461 7.29629 1.90971 7.51077 1.92259 7.72485L3.55722 26.9996V27C4.56856 26.6131 5.64472 26.415 6.73033 26.4158H43.2691C44.3547 26.415 45.4309 26.6131 46.4422 27L48.0769 7.7242C48.0898 7.51012 48.0649 7.29562 48.0039 7.08955C48.6066 6.7678 49.1096 6.29297 49.4613 5.71506C49.8124 5.1376 49.9983 4.47774 50 3.80524L49.9998 3.80596ZM26.9227 22.6479H23.0765C22.3892 22.6479 21.7544 22.2887 21.411 21.7058C21.0676 21.1228 21.0676 20.4045 21.411 19.8216C21.7544 19.2387 22.3893 18.8795 23.0765 18.8795H26.9227C27.6099 18.8795 28.2448 19.2386 28.5882 19.8216C28.9316 20.4045 28.9316 21.1229 28.5882 21.7058C28.2448 22.2887 27.6099 22.6479 26.9227 22.6479Z" fill="white"/>
<path d="M43.2084 30H6.7916C5.07985 30 3.49778 30.9531 2.64206 32.5C1.78598 34.0469 1.78598 35.9531 2.64206 37.5C3.49772 39.0469 5.07985 40 6.7916 40H43.2084C44.9201 40 46.5022 39.0469 47.3579 37.5C48.214 35.9531 48.214 34.0469 47.3579 32.5C46.5023 30.9531 44.9201 30 43.2084 30Z" fill="white"/>
</svg>
