<svg width="47" height="53" viewBox="0 0 47 53" fill="none" xmlns="http://www.w3.org/2000/svg">
<path d="M0.000503286 6.20475V37.7996C0.000503286 40.1401 1.17531 42.1878 3.23186 43.0654L20.8565 51.8418C22.619 52.7194 24.3815 52.7194 26.1439 51.8418L43.7686 43.0654C45.8247 42.1878 47 40.1401 47 37.7996V6.20475C32.3123 -1.40158 14.6877 -1.40158 0 6.20475H0.000503286ZM37.3069 19.9548L22.6193 34.5825C22.0316 35.1677 21.4445 35.4601 20.5632 35.4601C19.9756 35.4601 19.3884 35.1677 18.8008 34.8748L9.98841 29.0238C8.81311 28.1461 8.51952 26.3909 9.40075 24.928C10.282 23.4651 12.0445 23.1727 13.5133 24.0503L20.2696 28.4385L33.1948 15.5661C34.3696 14.3961 36.1321 14.3961 37.3074 15.5661C38.4818 16.7366 38.4818 18.7843 37.3069 19.9548H37.3069Z" fill="white"/>
</svg>
