<svg width="47" height="55" viewBox="0 0 47 55" fill="none" xmlns="http://www.w3.org/2000/svg">
<path d="M34.4767 3.21089C35.6417 7.74564 39.2068 11.3221 43.7361 12.4978V31.1505C43.7361 39.8051 30.1985 48.1929 23.5 51.4433C16.8015 48.183 3.26389 39.8051 3.26389 31.1505V12.4978C7.79316 11.3122 11.3684 7.73576 12.5333 3.21089H34.4767ZM37.3389 0H9.67115C9.67115 5.36465 5.34274 9.70181 0 9.70181V31.1505C0 44.577 23.5 55 23.5 55C23.5 55 47 44.577 47 31.1505V9.70181C41.6573 9.70181 37.3288 5.35477 37.3288 0H37.3389Z" fill="white"/>
<path d="M34.1714 25.6637C34.7368 25.4629 35.2228 25.2421 35.6394 24.971C36.046 24.6999 36.3833 24.4189 36.6709 24.0775C36.9288 23.7563 37.1569 23.3848 37.2859 22.9833C37.4148 22.5817 37.4644 22.1902 37.4644 21.7685C37.4644 21.0257 37.3355 20.4032 37.0776 19.8009C36.8197 19.1986 36.4329 18.7066 35.8675 18.285C35.3319 17.8634 34.6079 17.5421 33.735 17.3112C33.0011 17.1205 32.1679 17.0201 31.2058 17V19.6001C32.0786 19.6603 32.7531 19.8511 33.1994 20.1824C33.735 20.5839 34.0227 21.2264 34.0227 22.1701C34.0227 23.0636 33.7449 23.7362 33.1201 24.1578C32.5051 24.5795 31.6323 24.7803 30.452 24.7803H20.1764V20.6542H16.7148V24.7903H13.412V19.5901H25.5225V17H10V35H25.2844V32.3899H13.412V27.1093H16.7148V31.3056H20.1764V27.1294L30.333 27.1093H31.1661C31.7811 27.1093 32.2968 27.1595 32.7333 27.28C33.1697 27.4004 33.5069 27.551 33.7846 27.7819C34.0623 28.0028 34.2508 28.2839 34.3797 28.575C34.5087 28.8963 34.588 29.2175 34.588 29.6191C34.588 29.9905 34.5384 30.362 34.4095 30.6933C34.3103 31.0145 34.102 31.3157 33.8441 31.5666C33.5863 31.8176 33.249 32.0184 32.8126 32.169C32.3762 32.3196 31.8406 32.3899 31.2058 32.3899V35H31.2455C32.3266 35 33.2689 34.8795 34.1219 34.5984C34.9649 34.3274 35.6592 33.976 36.2246 33.5042C36.7899 33.0324 37.2264 32.4601 37.5338 31.8076C37.8413 31.1651 38 30.4624 38 29.6893C38 27.5711 36.7205 26.2259 34.1714 25.6838V25.6637Z" fill="white"/>
<path d="M21 15.5869V12H17V14.4786V15.4257V16H21V15.5869Z" fill="white"/>
<path d="M31 15.4623V14.5274V12H27V14.5274V15.9863V24H31V15.4623Z" fill="white"/>
<path d="M21 35H17V39H21V35Z" fill="white"/>
<path d="M31 27H27V39H31V27Z" fill="white"/>
</svg>
