<svg width="26" height="19" viewBox="0 0 26 19" fill="none" xmlns="http://www.w3.org/2000/svg">
<path d="M9.41415 19C8.91622 19 8.4183 18.8059 8.03738 18.4164L0.569822 10.7593C0.389464 10.5756 0.246135 10.3561 0.148274 10.1137C0.050414 9.8713 0 9.61091 0 9.34786C0 9.08481 0.050414 8.82443 0.148274 8.58203C0.246135 8.33963 0.389464 8.12011 0.569822 7.93641C0.93814 7.56154 1.43219 7.35174 1.94659 7.35174C2.46099 7.35174 2.95504 7.56154 3.32335 7.93641L9.41415 14.1807L22.6761 0.584678C23.0444 0.209808 23.5384 0 24.0529 0C24.5673 0 25.0613 0.209808 25.4296 0.584678C25.6101 0.768281 25.7536 0.987761 25.8516 1.23017C25.9495 1.47259 26 1.73302 26 1.99612C26 2.25923 25.9495 2.51966 25.8516 2.76208C25.7536 3.00449 25.6101 3.22397 25.4296 3.40757L10.7909 18.4151C10.4237 18.7917 9.92896 19.002 9.41415 19Z" fill="white"/>
</svg>
