<svg width="173" height="34" viewBox="0 0 173 34" fill="none" xmlns="http://www.w3.org/2000/svg">
<path d="M20.5393 1.98491C21.2333 4.78822 23.3573 6.9991 26.0556 7.72588V19.2567C26.0556 24.6068 17.9906 29.792 14 31.8013C10.0094 29.7859 1.94444 24.6068 1.94444 19.2567V7.72588C4.64274 6.99299 6.77265 4.78211 7.46667 1.98491H20.5393ZM22.2444 0H5.76154C5.76154 3.31633 3.18291 5.99749 0 5.99749V19.2567C0 27.5567 14 34 14 34C14 34 28 27.5567 28 19.2567V5.99749C24.8171 5.99749 22.2385 3.31022 22.2385 0H22.2444Z" fill="#C41617"/>
<path d="M20.6755 15.2945C21.0188 15.1718 21.3139 15.0368 21.5668 14.8712C21.8137 14.7055 22.0184 14.5337 22.1931 14.3252C22.3496 14.1288 22.4881 13.9018 22.5664 13.6564C22.6447 13.411 22.6748 13.1718 22.6748 12.9141C22.6748 12.4601 22.5965 12.0798 22.44 11.7117C22.2834 11.3436 22.0485 11.0429 21.7053 10.7853C21.3801 10.5276 20.9405 10.3313 20.4106 10.1902C19.9649 10.0736 19.4591 10.0123 18.875 10V11.589C19.4049 11.6258 19.8144 11.7423 20.0854 11.9448C20.4106 12.1902 20.5852 12.5828 20.5852 13.1595C20.5852 13.7055 20.4166 14.1166 20.0372 14.3742C19.6638 14.6319 19.1339 14.7546 18.4173 14.7546H12.1785V12.2331H10.0769V14.7607H8.07155V11.5828H15.4244V10H6V21H15.2798V19.4049H8.07155V16.1779H10.0769V18.7423H12.1785V16.1902L18.345 16.1779H18.8509C19.2242 16.1779 19.5374 16.2086 19.8023 16.2822C20.0673 16.3558 20.2721 16.4479 20.4407 16.589C20.6093 16.7239 20.7237 16.8957 20.802 17.0736C20.8803 17.2699 20.9284 17.4663 20.9284 17.7117C20.9284 17.9387 20.8983 18.1656 20.8201 18.3681C20.7598 18.5644 20.6334 18.7485 20.4768 18.9018C20.3202 19.0552 20.1155 19.1779 19.8505 19.2699C19.5855 19.362 19.2604 19.4049 18.875 19.4049V21H18.899C19.5554 21 20.1275 20.9264 20.6454 20.7546C21.1573 20.589 21.5788 20.3742 21.9221 20.0859C22.2653 19.7975 22.5303 19.4479 22.717 19.0491C22.9036 18.6564 23 18.227 23 17.7546C23 16.4601 22.2232 15.638 20.6755 15.3067V15.2945Z" fill="#272A5C"/>
<path d="M12 8.79345V7H10V8.23929V8.71285V9H12V8.79345Z" fill="#272A5C"/>
<path d="M18 9.01969V8.47432V7H16V8.47432V9.32534V14H18V9.01969Z" fill="#272A5C"/>
<path d="M12 21H10V24H12V21Z" fill="#272A5C"/>
<path d="M18 17H16V24H18V17Z" fill="#272A5C"/>
<path d="M45.7697 16.7588C46.7237 16.2641 47.3619 15.3542 47.3619 14.1206C47.3619 12.2153 45.7697 11 42.8001 11H37V23H43.1539C46.3383 23 48 21.8031 48 19.745C48 18.1878 47.0965 17.174 45.7697 16.7649V16.7588ZM42.5537 12.7466C44.1459 12.7466 45.0494 13.2962 45.0494 14.4076C45.0494 15.5191 44.1459 16.0504 42.5537 16.0504H39.2998V12.7405H42.5537V12.7466ZM43.0149 21.2473H39.2998V17.7847H43.0149C44.7461 17.7847 45.6875 18.316 45.6875 19.513C45.6875 20.7099 44.7524 21.2412 43.0149 21.2412V21.2473Z" fill="#272A5C"/>
<path d="M61 23L58.3059 19.055C59.8949 18.4198 60.7969 17.0824 60.7969 15.2687C60.7969 12.6122 58.8913 11 55.8148 11H51V23H53.1744V19.5008H55.8148C55.9642 19.5008 56.1135 19.5008 56.2688 19.4824L58.6583 22.9939H61V23ZM58.6105 15.2687C58.6105 16.7771 57.6248 17.6687 55.7192 17.6687H53.1804V12.887H55.7192C57.6248 12.887 58.6105 13.7603 58.6105 15.2687Z" fill="#272A5C"/>
<path d="M64 23H66V11H64V23Z" fill="#272A5C"/>
<path d="M72.9049 23H75.0951V12.887H79V11H69V12.887H72.9049V23Z" fill="#272A5C"/>
<path d="M82 23H84V11H82V23Z" fill="#272A5C"/>
<path d="M92.9361 23C96.3696 23 98 21.4028 98 19.5324C98 15.2514 90.5767 16.8664 90.5767 14.3845C90.5767 13.4998 91.3632 12.7991 93.2941 12.7991C94.3875 12.7991 95.6215 13.1019 96.7468 13.7135L97.4821 12.0332C96.3887 11.3681 94.8159 11 93.3133 11C89.8798 11 88.2686 12.5972 88.2686 14.4854C88.2686 18.8199 95.711 17.1692 95.711 19.6868C95.711 20.5537 94.8862 21.2009 92.9361 21.2009C91.3951 21.2009 89.8031 20.6665 88.8056 19.9184L88 21.5987C89.0358 22.43 90.9859 23 92.9361 23Z" fill="#272A5C"/>
<path d="M108.7 11V15.9527H102.3V11H100V23H102.3V17.858H108.7V23H111V11H108.7Z" fill="#272A5C"/>
<path d="M129.7 11V15.9527H123.3V11H121V23H123.3V17.858H129.7V23H132V11H129.7Z" fill="#272A5C"/>
<path d="M136 23H138V11H136V23Z" fill="#272A5C"/>
<path d="M142 23H150V21.113H144.098V11H142V23Z" fill="#272A5C"/>
<path d="M153 23H161V21.113H155.098V11H153V23Z" fill="#272A5C"/>
<path d="M167.936 23C171.37 23 173 21.4028 173 19.5324C173 15.2514 165.577 16.8664 165.577 14.3845C165.577 13.4998 166.363 12.7991 168.294 12.7991C169.387 12.7991 170.621 13.1019 171.747 13.7135L172.482 12.0332C171.389 11.3681 169.816 11 168.313 11C164.88 11 163.269 12.5972 163.269 14.4854C163.269 18.8199 170.711 17.1692 170.711 19.6868C170.711 20.5537 169.886 21.2009 167.936 21.2009C166.395 21.2009 164.803 20.6665 163.806 19.9184L163 21.5987C164.036 22.43 165.986 23 167.936 23Z" fill="#272A5C"/>
</svg>
