<svg width="270" height="71" viewBox="0 0 270 71" fill="none" xmlns="http://www.w3.org/2000/svg">
<path d="M65.6191 53.9474L64.665 51.4179H59.7399L58.7858 53.9474H58L61.8166 44H62.6023L66.4049 53.9474H65.6191ZM60.0205 50.7074H64.3984L62.2095 44.9237L60.0205 50.7074Z" fill="white"/>
<path d="M72.7739 46.8421H73.4895V53.9474H72.7739V50.7358H68.3961V53.9474H67.6945V46.8421H68.3961V50.0537H72.7739V46.8421Z" fill="white"/>
<path d="M80.0476 46.8421V47.5384H76.3573V53.9474H75.6557V46.8421H80.0476Z" fill="white"/>
<path d="M86.5732 46.8421V53.9474H85.8717V47.5384H82.3357V50.9632C82.3357 52.1189 82.1252 52.9195 81.7043 53.3647C81.2834 53.81 80.7081 54.0042 79.9784 53.9474V53.2795C80.5397 53.3268 80.956 53.1753 81.2272 52.8247C81.4985 52.4742 81.6341 51.8537 81.6341 50.9632V46.8421H86.5732Z" fill="white"/>
<path d="M89.4717 44.9663C89.3595 45.0705 89.2285 45.1226 89.0789 45.1226C88.9292 45.1226 88.7982 45.0705 88.686 44.9663C88.5737 44.8526 88.5176 44.7153 88.5176 44.5542C88.5176 44.4026 88.5737 44.2747 88.686 44.1705C88.7982 44.0568 88.9292 44 89.0789 44C89.2285 44 89.3595 44.0568 89.4717 44.1705C89.584 44.2747 89.6401 44.4026 89.6401 44.5542C89.6401 44.7153 89.584 44.8526 89.4717 44.9663ZM88.7281 53.9474V46.8421H89.4297V53.9474H88.7281Z" fill="white"/>
<path d="M92.7004 45.6058V44.9805H96.2504V45.6058H92.7004ZM96.7696 46.8421H97.387V53.9474H96.6713V48.0784L92.2093 53.9474H91.5919V46.8421H92.2935V52.7111L96.7696 46.8421Z" fill="white"/>
<path d="M102.766 54.1037C101.709 54.1037 100.83 53.7484 100.128 53.0379C99.4269 52.3274 99.0761 51.4463 99.0761 50.3947C99.0761 49.3432 99.4269 48.4621 100.128 47.7516C100.83 47.0411 101.709 46.6858 102.766 46.6858C103.449 46.6858 104.067 46.8516 104.619 47.1832C105.17 47.5053 105.573 47.9458 105.825 48.5047L105.25 48.8458C105.044 48.3911 104.717 48.0311 104.268 47.7658C103.828 47.5005 103.328 47.3679 102.766 47.3679C101.925 47.3679 101.218 47.6616 100.648 48.2489C100.077 48.8268 99.7917 49.5421 99.7917 50.3947C99.7917 51.2474 100.077 51.9674 100.648 52.5547C101.218 53.1326 101.925 53.4216 102.766 53.4216C103.328 53.4216 103.828 53.2889 104.268 53.0237C104.717 52.7584 105.058 52.3984 105.292 51.9437L105.881 52.2989C105.601 52.8484 105.18 53.2889 104.619 53.6205C104.067 53.9426 103.449 54.1037 102.766 54.1037Z" fill="white"/>
<path d="M110.197 49.5989C110.842 49.5989 111.389 49.8026 111.838 50.21C112.287 50.6174 112.512 51.1384 112.512 51.7732C112.512 52.4079 112.287 52.9289 111.838 53.3363C111.389 53.7437 110.842 53.9474 110.197 53.9474H107.419V46.8421H108.12V49.5989H110.197ZM110.197 53.2511C110.646 53.2511 111.025 53.1137 111.333 52.8389C111.642 52.5642 111.796 52.2089 111.796 51.7732C111.796 51.3279 111.642 50.9726 111.333 50.7074C111.034 50.4326 110.655 50.2953 110.197 50.2953H108.12V53.2511H110.197Z" fill="white"/>
<path d="M119.425 53.9474H118.471L114.752 50.4516V53.9474H114.051V46.8421H114.752V50.0679L118.302 46.8421H119.284L115.51 50.2526L119.425 53.9474Z" fill="white"/>
<path d="M126.308 46.8421H127.024V53.9474H126.308V52.3416C126.009 52.8911 125.598 53.3221 125.074 53.6347C124.55 53.9474 123.956 54.1037 123.292 54.1037C122.291 54.1037 121.435 53.7484 120.724 53.0379C120.013 52.3179 119.658 51.4368 119.658 50.3947C119.658 49.3526 120.013 48.4763 120.724 47.7658C121.435 47.0458 122.291 46.6858 123.292 46.6858C123.956 46.6858 124.55 46.8421 125.074 47.1547C125.598 47.4674 126.009 47.8984 126.308 48.4479V46.8421ZM121.229 52.5405C121.809 53.1279 122.515 53.4216 123.348 53.4216C124.18 53.4216 124.882 53.1279 125.453 52.5405C126.023 51.9532 126.308 51.2379 126.308 50.3947C126.308 49.5516 126.023 48.8363 125.453 48.2489C124.882 47.6616 124.18 47.3679 123.348 47.3679C122.515 47.3679 121.809 47.6616 121.229 48.2489C120.658 48.8363 120.373 49.5516 120.373 50.3947C120.373 51.2379 120.658 51.9532 121.229 52.5405Z" fill="white"/>
<path d="M136.132 54.1037C135.103 54.1037 134.229 53.7484 133.509 53.0379C132.798 52.3179 132.442 51.4368 132.442 50.3947C132.442 49.3526 132.798 48.4763 133.509 47.7658C134.229 47.0458 135.103 46.6858 136.132 46.6858C137.152 46.6858 138.017 47.0458 138.728 47.7658C139.449 48.4763 139.809 49.3526 139.809 50.3947C139.809 51.4368 139.449 52.3179 138.728 53.0379C138.017 53.7484 137.152 54.1037 136.132 54.1037ZM134.014 52.5405C134.594 53.1279 135.3 53.4216 136.132 53.4216C136.965 53.4216 137.667 53.1279 138.237 52.5405C138.808 51.9532 139.093 51.2379 139.093 50.3947C139.093 49.5516 138.808 48.8363 138.237 48.2489C137.667 47.6616 136.965 47.3679 136.132 47.3679C135.3 47.3679 134.594 47.6616 134.014 48.2489C133.443 48.8363 133.158 49.5516 133.158 50.3947C133.158 51.2379 133.443 51.9532 134.014 52.5405Z" fill="white"/>
<path d="M146.576 46.8421H147.292V53.9474H146.576V50.7358H142.199V53.9474H141.497V46.8421H142.199V50.0537H146.576V46.8421Z" fill="white"/>
<path d="M155.155 46.8421V53.9474H154.454V47.5384H150.918V50.9632C150.918 52.1189 150.707 52.9195 150.286 53.3647C149.865 53.81 149.29 54.0042 148.56 53.9474V53.2795C149.122 53.3268 149.538 53.1753 149.809 52.8247C150.08 52.4742 150.216 51.8537 150.216 50.9632V46.8421H155.155Z" fill="white"/>
<path d="M163.484 46.8421H164.199V53.9474H163.484V52.3416C163.184 52.8911 162.773 53.3221 162.249 53.6347C161.725 53.9474 161.131 54.1037 160.467 54.1037C159.466 54.1037 158.61 53.7484 157.899 53.0379C157.188 52.3179 156.833 51.4368 156.833 50.3947C156.833 49.3526 157.188 48.4763 157.899 47.7658C158.61 47.0458 159.466 46.6858 160.467 46.6858C161.131 46.6858 161.725 46.8421 162.249 47.1547C162.773 47.4674 163.184 47.8984 163.484 48.4479V46.8421ZM158.404 52.5405C158.984 53.1279 159.691 53.4216 160.523 53.4216C161.356 53.4216 162.057 53.1279 162.628 52.5405C163.199 51.9532 163.484 51.2379 163.484 50.3947C163.484 49.5516 163.199 48.8363 162.628 48.2489C162.057 47.6616 161.356 47.3679 160.523 47.3679C159.691 47.3679 158.984 47.6616 158.404 48.2489C157.834 48.8363 157.548 49.5516 157.548 50.3947C157.548 51.2379 157.834 51.9532 158.404 52.5405Z" fill="white"/>
<path d="M167.462 45.6058V44.9805H171.012V45.6058H167.462ZM171.531 46.8421H172.149V53.9474H171.433V48.0784L166.971 53.9474H166.354V46.8421H167.055V52.7111L171.531 46.8421Z" fill="white"/>
<path d="M179.394 46.8421H180.11V53.9474H179.394V50.7358H175.017V53.9474H174.315V46.8421H175.017V50.0537H179.394V46.8421Z" fill="white"/>
<path d="M191.77 53.2511H192.752V55.8516H192.037V53.9474H185.975V55.8516H185.259V53.2511H186.073C186.588 52.5405 186.845 51.5884 186.845 50.3947V46.8421H191.77V53.2511ZM186.943 53.2511H191.054V47.5384H187.546V50.3947C187.546 51.56 187.345 52.5121 186.943 53.2511Z" fill="white"/>
<path d="M199.99 46.8421V53.9474H199.289V47.5384H195.753V50.9632C195.753 52.1189 195.542 52.9195 195.121 53.3647C194.7 53.81 194.125 54.0042 193.395 53.9474V53.2795C193.957 53.3268 194.373 53.1753 194.644 52.8247C194.916 52.4742 195.051 51.8537 195.051 50.9632V46.8421H199.99Z" fill="white"/>
<path d="M207 46.8421V53.9474H206.298V51.1763H204.783L202.58 53.9474H201.668L203.913 51.1621C203.342 51.0958 202.865 50.8684 202.482 50.48C202.098 50.0821 201.907 49.5942 201.907 49.0163C201.907 48.3816 202.131 47.8605 202.58 47.4532C203.029 47.0458 203.576 46.8421 204.222 46.8421H207ZM204.222 50.4942H206.298V47.5384H204.222C203.773 47.5384 203.394 47.6758 203.085 47.9505C202.776 48.2253 202.622 48.5805 202.622 49.0163C202.622 49.4616 202.772 49.8216 203.071 50.0963C203.38 50.3616 203.763 50.4942 204.222 50.4942Z" fill="white"/>
<path d="M64.6229 67.4616H65.6051V70.0621H64.8895V68.1579H58.8279V70.0621H58.1123V67.4616H58.9261C59.4406 66.7511 59.6978 65.7989 59.6978 64.6053V61.0526H64.6229V67.4616ZM59.796 67.4616H63.9073V61.7489H60.3994V64.6053C60.3994 65.7705 60.1983 66.7226 59.796 67.4616Z" fill="white"/>
<path d="M70.0855 68.3142C69.0566 68.3142 68.1819 67.9589 67.4616 67.2484C66.7507 66.5284 66.3952 65.6474 66.3952 64.6053C66.3952 63.5632 66.7507 62.6868 67.4616 61.9763C68.1819 61.2563 69.0566 60.8963 70.0855 60.8963C71.1052 60.8963 71.9704 61.2563 72.6814 61.9763C73.4017 62.6868 73.7618 63.5632 73.7618 64.6053C73.7618 65.6474 73.4017 66.5284 72.6814 67.2484C71.9704 67.9589 71.1052 68.3142 70.0855 68.3142ZM67.9668 66.7511C68.5467 67.3384 69.253 67.6321 70.0855 67.6321C70.9181 67.6321 71.6197 67.3384 72.1903 66.7511C72.7609 66.1637 73.0462 65.4484 73.0462 64.6053C73.0462 63.7621 72.7609 63.0468 72.1903 62.4595C71.6197 61.8721 70.9181 61.5784 70.0855 61.5784C69.253 61.5784 68.5467 61.8721 67.9668 62.4595C67.3962 63.0468 67.1109 63.7621 67.1109 64.6053C67.1109 65.4484 67.3962 66.1637 67.9668 66.7511Z" fill="white"/>
<path d="M79.1685 60.8963C80.1788 60.8963 81.0347 61.2563 81.7363 61.9763C82.4472 62.6868 82.8027 63.5632 82.8027 64.6053C82.8027 65.6474 82.4472 66.5284 81.7363 67.2484C81.0347 67.9589 80.1788 68.3142 79.1685 68.3142C78.5044 68.3142 77.9057 68.1532 77.3725 67.8311C76.8487 67.5089 76.4417 67.0684 76.1518 66.5095V71H75.4502V61.0526H76.1518V62.7011C76.4417 62.1421 76.8487 61.7016 77.3725 61.3795C77.9057 61.0574 78.5044 60.8963 79.1685 60.8963ZM77.0077 66.7511C77.5877 67.3384 78.2939 67.6321 79.1264 67.6321C79.959 67.6321 80.6606 67.3384 81.2312 66.7511C81.8111 66.1637 82.1011 65.4484 82.1011 64.6053C82.1011 63.7621 81.8111 63.0468 81.2312 62.4595C80.6606 61.8721 79.959 61.5784 79.1264 61.5784C78.2939 61.5784 77.5877 61.8721 77.0077 62.4595C76.4371 63.0468 76.1518 63.7621 76.1518 64.6053C76.1518 65.4484 76.4371 66.1637 77.0077 66.7511Z" fill="white"/>
<path d="M87.7072 68.3142C86.6782 68.3142 85.8036 67.9589 85.0833 67.2484C84.3723 66.5284 84.0169 65.6474 84.0169 64.6053C84.0169 63.5632 84.3723 62.6868 85.0833 61.9763C85.8036 61.2563 86.6782 60.8963 87.7072 60.8963C88.7268 60.8963 89.5921 61.2563 90.303 61.9763C91.0233 62.6868 91.3834 63.5632 91.3834 64.6053C91.3834 65.6474 91.0233 66.5284 90.303 67.2484C89.5921 67.9589 88.7268 68.3142 87.7072 68.3142ZM85.5884 66.7511C86.1684 67.3384 86.8746 67.6321 87.7072 67.6321C88.5397 67.6321 89.2413 67.3384 89.8119 66.7511C90.3825 66.1637 90.6678 65.4484 90.6678 64.6053C90.6678 63.7621 90.3825 63.0468 89.8119 62.4595C89.2413 61.8721 88.5397 61.5784 87.7072 61.5784C86.8746 61.5784 86.1684 61.8721 85.5884 62.4595C85.0178 63.0468 84.7325 63.7621 84.7325 64.6053C84.7325 65.4484 85.0178 66.1637 85.5884 66.7511Z" fill="white"/>
<path d="M96.285 68.3142C95.228 68.3142 94.3487 67.9589 93.6471 67.2484C92.9455 66.5379 92.5947 65.6568 92.5947 64.6053C92.5947 63.5537 92.9455 62.6726 93.6471 61.9621C94.3487 61.2516 95.228 60.8963 96.285 60.8963C96.9679 60.8963 97.5853 61.0621 98.1372 61.3937C98.6891 61.7158 99.0913 62.1563 99.3439 62.7153L98.7686 63.0563C98.5628 62.6016 98.2354 62.2416 97.7864 61.9763C97.3468 61.7111 96.8463 61.5784 96.285 61.5784C95.4431 61.5784 94.7369 61.8721 94.1663 62.4595C93.5957 63.0374 93.3104 63.7526 93.3104 64.6053C93.3104 65.4579 93.5957 66.1779 94.1663 66.7653C94.7369 67.3432 95.4431 67.6321 96.285 67.6321C96.8463 67.6321 97.3468 67.4995 97.7864 67.2342C98.2354 66.9689 98.5769 66.6089 98.8107 66.1542L99.4 66.5095C99.1194 67.0589 98.6985 67.4995 98.1372 67.8311C97.5853 68.1532 96.9679 68.3142 96.285 68.3142Z" fill="white"/>
<path d="M106.497 61.0526V68.1579H105.795V61.7489H102.259V65.1737C102.259 66.3295 102.049 67.13 101.628 67.5753C101.207 68.0205 100.632 68.2147 99.9021 68.1579V67.49C100.463 67.5374 100.88 67.3858 101.151 67.0353C101.422 66.6847 101.558 66.0642 101.558 65.1737V61.0526H106.497Z" fill="white"/>
<path d="M113.829 61.0526H114.447V68.1579H113.731V62.2889L109.269 68.1579H108.652V61.0526H109.353V66.9216L113.829 61.0526Z" fill="white"/>
<path d="M122.31 68.1579H121.454L119.083 65.06L116.711 68.1579H115.855L118.662 64.5058L116.024 61.0526H116.88L119.083 63.9374L121.3 61.0526H122.141L119.518 64.4916L122.31 68.1579Z" fill="white"/>
<path d="M132.377 61.0526V61.7489H129.823V68.1579H129.121V61.7489H126.568V61.0526H132.377Z" fill="white"/>
<path d="M139.545 61.0526H140.261V68.1579H139.545V66.5521C139.246 67.1016 138.834 67.5326 138.31 67.8453C137.787 68.1579 137.193 68.3142 136.528 68.3142C135.528 68.3142 134.672 67.9589 133.961 67.2484C133.25 66.5284 132.894 65.6474 132.894 64.6053C132.894 63.5632 133.25 62.6868 133.961 61.9763C134.672 61.2563 135.528 60.8963 136.528 60.8963C137.193 60.8963 137.787 61.0526 138.31 61.3653C138.834 61.6779 139.246 62.1089 139.545 62.6584V61.0526ZM134.466 66.7511C135.046 67.3384 135.752 67.6321 136.585 67.6321C137.417 67.6321 138.119 67.3384 138.689 66.7511C139.26 66.1637 139.545 65.4484 139.545 64.6053C139.545 63.7621 139.26 63.0468 138.689 62.4595C138.119 61.8721 137.417 61.5784 136.585 61.5784C135.752 61.5784 135.046 61.8721 134.466 62.4595C133.895 63.0468 133.61 63.7621 133.61 64.6053C133.61 65.4484 133.895 66.1637 134.466 66.7511Z" fill="white"/>
<path d="M151.909 67.4616H152.891V70.0621H152.175V68.1579H146.114V70.0621H145.398V67.4616H146.212C146.727 66.7511 146.984 65.7989 146.984 64.6053V61.0526H151.909V67.4616ZM147.082 67.4616H151.193V61.7489H147.685V64.6053C147.685 65.7705 147.484 66.7226 147.082 67.4616Z" fill="white"/>
<path d="M155.176 59.1768C155.064 59.2811 154.933 59.3332 154.783 59.3332C154.633 59.3332 154.503 59.2811 154.39 59.1768C154.278 59.0632 154.222 58.9258 154.222 58.7647C154.222 58.6132 154.278 58.4853 154.39 58.3811C154.503 58.2674 154.633 58.2105 154.783 58.2105C154.933 58.2105 155.064 58.2674 155.176 58.3811C155.288 58.4853 155.344 58.6132 155.344 58.7647C155.344 58.9258 155.288 59.0632 155.176 59.1768ZM154.432 68.1579V61.0526H155.134V68.1579H154.432Z" fill="white"/>
<path d="M162.207 61.0526V61.7489H159.654V68.1579H158.952V61.7489H156.398V61.0526H162.207Z" fill="white"/>
<path d="M166.359 60.8963C167.388 60.8963 168.221 61.2658 168.857 62.0047C169.502 62.7437 169.825 63.62 169.825 64.6337C169.825 64.6716 169.82 64.7284 169.811 64.8042C169.811 64.88 169.811 64.9368 169.811 64.9747H163.455C163.539 65.7705 163.852 66.4147 164.395 66.9074C164.947 67.3905 165.625 67.6321 166.429 67.6321C166.991 67.6321 167.482 67.5137 167.903 67.2768C168.324 67.04 168.642 66.7274 168.857 66.3389L169.474 66.7084C169.184 67.2011 168.773 67.5942 168.239 67.8879C167.706 68.1721 167.098 68.3142 166.415 68.3142C165.34 68.3142 164.456 67.9684 163.763 67.2768C163.071 66.5758 162.725 65.6853 162.725 64.6053C162.725 63.5442 163.062 62.6632 163.735 61.9621C164.418 61.2516 165.293 60.8963 166.359 60.8963ZM166.359 61.5784C165.564 61.5784 164.9 61.8295 164.367 62.3316C163.834 62.8337 163.529 63.4826 163.455 64.2784H169.095C169.021 63.4353 168.721 62.7768 168.197 62.3032C167.683 61.82 167.07 61.5784 166.359 61.5784Z" fill="white"/>
<path d="M172.573 59.8163V59.1911H176.123V59.8163H172.573ZM176.642 61.0526H177.26V68.1579H176.544V62.2889L172.082 68.1579H171.465V61.0526H172.166V66.9216L176.642 61.0526Z" fill="white"/>
<path d="M32.2761 3.09413C33.3667 7.46398 36.7043 10.9104 40.9444 12.0433V30.0178C40.9444 38.3576 28.2709 46.4405 22 49.5727C15.7291 46.4309 3.05556 38.3576 3.05556 30.0178V12.0433C7.29573 10.9008 10.6427 7.45446 11.7333 3.09413H32.2761ZM34.9556 0H9.05385C9.05385 5.16957 5.00171 9.34902 0 9.34902V30.0178C0 42.956 22 53 22 53C22 53 44 42.956 44 30.0178V9.34902C38.9983 9.34902 34.9462 5.16005 34.9462 0H34.9556Z" fill="white"/>
<path d="M32.3082 24.1824C32.8533 23.9928 33.322 23.7842 33.7237 23.5282C34.1158 23.2722 34.441 23.0067 34.7184 22.6843C34.9671 22.3809 35.187 22.0301 35.3114 21.6509C35.4357 21.2716 35.4835 20.9018 35.4835 20.5036C35.4835 19.802 35.3592 19.2142 35.1105 18.6453C34.8618 18.0764 34.4888 17.6118 33.9437 17.2136C33.4272 16.8154 32.729 16.512 31.8874 16.2939C31.1796 16.1138 30.3762 16.019 29.4485 16V18.4557C30.2901 18.5125 30.9405 18.6927 31.3709 19.0056C31.8874 19.3848 32.1647 19.9916 32.1647 20.8829C32.1647 21.7267 31.8969 22.362 31.2944 22.7602C30.7014 23.1584 29.8597 23.348 28.7216 23.348H18.813V19.4512H15.475V23.3575H12.2901V18.4462H23.9681V16H9V33H23.7386V30.5349H12.2901V25.5477H15.475V29.5109H18.813V25.5666L28.6068 25.5477H29.4102C30.0032 25.5477 30.5005 25.5951 30.9214 25.7089C31.3422 25.8226 31.6674 25.9649 31.9352 26.1829C32.203 26.3915 32.3847 26.657 32.509 26.932C32.6334 27.2354 32.7099 27.5388 32.7099 27.918C32.7099 28.2688 32.6621 28.6196 32.5377 28.9325C32.4421 29.2359 32.2412 29.5204 31.9926 29.7574C31.7439 29.9944 31.4187 30.184 30.9979 30.3263C30.577 30.4685 30.0606 30.5349 29.4485 30.5349V33H29.4867C30.5292 33 31.4378 32.8862 32.2604 32.6207C33.0733 32.3648 33.7428 32.0329 34.288 31.5873C34.8332 31.1417 35.254 30.6012 35.5505 29.9849C35.847 29.3781 36 28.7144 36 27.9844C36 25.9838 34.7662 24.7133 32.3082 24.2013V24.1824Z" fill="#C41617"/>
<path d="M18 14.5869V11H15V13.4786V14.4257V15H18V14.5869Z" fill="#C41617"/>
<path d="M28 14.1738V13.3168V11H25V13.3168V14.6541V22H28V14.1738Z" fill="#C41617"/>
<path d="M18 34H15V38H18V34Z" fill="#C41617"/>
<path d="M28 26H25V38H28V26Z" fill="#C41617"/>
<path d="M71.5531 25.6382C73.0276 24.8962 74.0138 23.5313 74.0138 21.6809C74.0138 18.8229 71.5531 17 66.9638 17H58V35H67.5106C72.4319 35 75 33.2046 75 30.1176C75 27.7817 73.6037 26.2611 71.5531 25.6473V25.6382ZM66.583 19.6198C69.0437 19.6198 70.44 20.4443 70.44 22.1115C70.44 23.7786 69.0437 24.5756 66.583 24.5756H61.5543V19.6107H66.583V19.6198ZM67.2958 32.371H61.5543V27.1771H67.2958C69.9713 27.1771 71.4262 27.974 71.4262 29.7695C71.4262 31.5649 69.981 32.3618 67.2958 32.3618V32.371Z" fill="white"/>
<path d="M96 35L91.6894 29.0824C94.2318 28.1298 95.675 26.1237 95.675 23.4031C95.675 19.4183 92.626 17 87.7037 17H80V35H83.4791V29.7511H87.7037C87.9427 29.7511 88.1816 29.7511 88.4301 29.7237L92.2533 34.9908H96V35ZM92.1768 23.4031C92.1768 25.6656 90.5998 27.0031 87.5508 27.0031H83.4887V19.8305H87.5508C90.5998 19.8305 92.1768 21.1405 92.1768 23.4031Z" fill="white"/>
<path d="M101 35H104V17H101V35Z" fill="white"/>
<path d="M114.248 35H117.752V19.8305H124V17H108V19.8305H114.248V35Z" fill="white"/>
<path d="M128 35H131V17H128V35Z" fill="white"/>
<path d="M144.404 36C149.554 36 152 33.4711 152 30.5096C152 23.7313 140.865 26.2885 140.865 22.3587C140.865 20.9579 142.045 19.8486 144.941 19.8486C146.581 19.8486 148.432 20.3281 150.12 21.2964L151.223 18.6358C149.583 17.5829 147.224 17 144.97 17C139.82 17 137.403 19.5289 137.403 22.5186C137.403 29.3815 148.566 26.7679 148.566 30.7541C148.566 32.1267 147.329 33.1514 144.404 33.1514C142.093 33.1514 139.705 32.3053 138.208 31.1207L137 33.7813C138.554 35.0975 141.479 36 144.404 36Z" fill="white"/>
<path d="M170.446 17V24.429H160.554V17H157V35H160.554V27.287H170.446V35H174V17H170.446Z" fill="white"/>
<path d="M202.446 17V24.429H192.554V17H189V35H192.554V27.287H202.446V35H206V17H202.446Z" fill="white"/>
<path d="M212 35H215V17H212V35Z" fill="white"/>
<path d="M222 35H235V32.1695H225.409V17H222V35Z" fill="white"/>
<path d="M239 35H252V32.1695H242.409V17H239V35Z" fill="white"/>
<path d="M262.404 36C267.554 36 270 33.4711 270 30.5096C270 23.7313 258.865 26.2885 258.865 22.3587C258.865 20.9579 260.045 19.8486 262.941 19.8486C264.581 19.8486 266.432 20.3281 268.12 21.2964L269.223 18.6358C267.583 17.5829 265.224 17 262.97 17C257.82 17 255.403 19.5289 255.403 22.5186C255.403 29.3815 266.566 26.7679 266.566 30.7541C266.566 32.1267 265.329 33.1514 262.404 33.1514C260.093 33.1514 257.705 32.3053 256.208 31.1207L255 33.7813C256.554 35.0975 259.479 36 262.404 36Z" fill="white"/>
</svg>
